<?xml version="1.0" encoding="iso-8859-1"?>
<!-- Generator: Adobe Illustrator 16.0.0, SVG Export Plug-In . SVG Version: 6.00 Build 0)  -->
<!DOCTYPE svg PUBLIC "-//W3C//DTD SVG 1.1//EN" "http://www.w3.org/Graphics/SVG/1.1/DTD/svg11.dtd">
<svg version="1.1" id="Capa_1" xmlns="http://www.w3.org/2000/svg" xmlns:xlink="http://www.w3.org/1999/xlink" x="0px" y="0px"
	 width="75.446px" height="75.447px" viewBox="0 0 75.446 75.447" style="enable-background:new 0 0 75.446 75.447;"
	 xml:space="preserve">
<g>
	<path d="M72.762,11.679H2.686C1.204,11.679,0,12.887,0,14.365v46.718c0,1.482,1.206,2.685,2.686,2.685h70.076
		c1.482,0,2.685-1.207,2.685-2.685V14.365C75.446,12.882,74.244,11.679,72.762,11.679z M11.466,37.246
		c0.339-1.329,2.217-5.416,7.316-6.598c0.124-0.024,0.229-0.064,0.346-0.091c2.704,1.866,4.076,1.422,6.683,0.941
		c0.748-0.145,1.417-0.196,2.061-0.219c1.552-0.055,2.809,0.199,3.82,0.64c1.843,1.132,2.978,2.66,3.604,3.854
		c0.372,0.997,0.43,1.794,0.365,1.896c0.03,0.004,0.121-0.156,0.23-0.43c0.057,0.243,0.078,0.395,0.054,0.43
		c0.049,0.023,0.292-0.736,0.458-1.896c0.027,0.025,0.056,0.051,0.084,0.084c0.096,0.081,0.188,0.177,0.27,0.288
		c0.009,0.014,0.012,0.032,0.022,0.043c0.096,0.14,0.181,0.283,0.25,0.454c0.009,0.019,0.011,0.047,0.023,0.063
		c0.064,0.154,0.117,0.323,0.151,0.497c0.042,0.207,0.064,0.426,0.064,0.642c0,1.355-0.766,2.456-1.707,2.481
		c-0.015-0.007-0.038-0.016-0.057-0.016c-0.034-0.015-0.061-0.03-0.107-0.034c0,0-0.004,0-0.009,0l-0.368-0.046l-0.121,0.347
		c-0.417,1.231-1.028,2.363-1.785,3.357c-0.905,1.195-2.022,2.197-3.291,2.97c-0.164,0.11-0.336,0.196-0.51,0.288
		c-1.693,0.914-3.618,1.433-5.636,1.433c-1.654,0-3.25-0.352-4.708-0.981c-0.49-0.217-0.974-0.461-1.432-0.739
		c-1.269-0.766-2.383-1.774-3.286-2.965c-0.757-1.006-1.369-2.131-1.785-3.362l-0.122-0.347l-0.371,0.046c-0.005,0-0.005,0-0.007,0
		c-0.052,0.011-0.084,0.02-0.111,0.034c-0.018,0-0.043,0.009-0.056,0.016c-0.943-0.025-1.705-1.121-1.705-2.481
		c0-0.221,0.019-0.438,0.06-0.64c0.033-0.174,0.091-0.336,0.155-0.497c0.004-0.019,0.007-0.049,0.021-0.063
		c0.067-0.171,0.156-0.316,0.245-0.454c0.012-0.011,0.02-0.029,0.029-0.043c0.079-0.111,0.172-0.207,0.268-0.288
		c0.028-0.033,0.049-0.059,0.084-0.084c0.166,1.157,0.409,1.913,0.462,1.897C11.387,37.641,11.405,37.485,11.466,37.246z
		 M18.965,48.641c1.469,0.589,3.067,0.908,4.721,0.908c1.997,0,3.912-0.466,5.626-1.313v10.162h-4.295l0.086-1.312h1.285v-3.403
		h-0.372c0.115-0.228,0.209-0.465,0.253-0.725h-0.827c-0.012,0.241-0.035,0.483-0.073,0.725H24.99
		c0.038-0.241,0.064-0.479,0.071-0.725h-1.234v0.725H23.45v-0.725h-1.228c0.008,0.241,0.04,0.483,0.075,0.725h-0.378
		c-0.038-0.241-0.067-0.479-0.079-0.725h-0.744c0.044,0.255,0.136,0.497,0.255,0.725h-0.376v3.403h1.293l0.08,1.312h-3.38v-9.757
		H18.965L18.965,48.641z M21.274,56.785v-2.806h4.81v2.806H21.274z M70.074,58.395H41.106c-0.068-5.739-2.909-10.803-7.244-13.928
		c0.729-0.972,1.331-2.044,1.77-3.226c1.411-0.064,2.548-1.562,2.548-3.385c0-1.411-0.691-2.609-1.692-3.102
		c0.272-2.462,0.247-6.475-3.345-9.161c-4.945-3.7-9.381-4.963-13.938-2.413c0.033-0.633,0.145-1.409,0.398-2.374
		c0,0-1.556,0.755-1.852,2.661c0,0-1.309-0.646-2.311,0.651c0,0,0.504,0.047,1.128,0.247c-1.345,0.598-2.662,1.532-3.673,2.737
		c-1.955,2.342-2.224,5.43-2.053,7.663c-0.986,0.505-1.659,1.696-1.659,3.084c0,1.826,1.136,3.326,2.546,3.387
		c0.437,1.177,1.042,2.254,1.772,3.221c-4.335,3.132-7.175,8.196-7.243,13.936H5.376V17.051h64.703v41.344H70.074z M72.762,41.073
		c-0.931,0-1.69-0.757-1.69-1.689c0-0.925,0.758-1.683,1.69-1.683c0.931,0,1.684,0.751,1.684,1.683
		C74.445,40.316,73.69,41.073,72.762,41.073z M52.565,36.513l-1.168-4.202h0.456h0.456l0.698,3.072l0.606-3.072h0.466h0.47
		l0.602,3.048h0.005l0.698-3.048h0.442h0.44l-1.168,4.202h-0.418h-0.419l-0.676-3.308L53.4,36.513h-0.42H52.565z M48.719,35.768
		h2.313v0.366v0.379h-3.189v-4.202h3.092v0.366v0.376h-2.216v0.892h2.054v0.36v0.361h-2.054V35.768z M46.584,32.313h0.411v4.202
		h-0.438h-0.438l-1.731-3.029v3.029h-0.413h-0.411v-4.202h0.461h0.461l1.688,2.947v-2.947H46.584z M59.44,35.768
		c0.152-0.091,0.237-0.218,0.237-0.374s-0.055-0.276-0.169-0.348c-0.114-0.072-0.347-0.149-0.712-0.234
		c-0.666-0.145-1.113-0.31-1.337-0.484c-0.224-0.167-0.333-0.439-0.333-0.803c0-0.412,0.146-0.729,0.438-0.97
		c0.296-0.243,0.697-0.36,1.199-0.36c0.471,0,0.854,0.127,1.15,0.372c0.292,0.245,0.453,0.582,0.487,1.005H59.55
		c-0.019-0.201-0.105-0.356-0.265-0.475c-0.155-0.12-0.365-0.178-0.625-0.178c-0.224,0-0.397,0.049-0.527,0.147
		c-0.123,0.098-0.185,0.236-0.185,0.414c0,0.123,0.062,0.225,0.196,0.288c0.128,0.069,0.401,0.151,0.826,0.243
		c0.611,0.137,1.021,0.296,1.223,0.471c0.209,0.178,0.31,0.46,0.31,0.857c0,0.393-0.155,0.708-0.465,0.937
		c-0.311,0.229-0.73,0.343-1.26,0.343c-0.533,0-0.948-0.123-1.25-0.366c-0.296-0.243-0.456-0.595-0.479-1.049h0.844
		c0.009,0.227,0.092,0.397,0.242,0.519c0.155,0.119,0.369,0.177,0.643,0.177C59.063,35.909,59.283,35.859,59.44,35.768z
		 M50.708,49.551l2.806-2.803v0.07l4.047-4.044h5.949v-2.729h2.806V22.91H43.35v2.735h-2.807v17.13h10.166V49.551L50.708,49.551z
		 M44.48,24.042h20.703v14.871h-1.669V25.645H44.48V24.042L44.48,24.042z M41.673,41.648V26.775h1.677h0.563h0.565h17.902v12.139
		v0.565v0.567v1.602h-3.695h-0.801h-0.799h-0.068l-2.377,2.377l-0.565,0.565l-0.565,0.562l-1.675,1.679v-5.183H41.673z
		 M24.839,51.221h-1.017v-1.387c0.138,0.005,0.267,0.022,0.395,0.048C24.486,50.302,24.691,50.75,24.839,51.221z M25.318,51.6h0.853
		c0.09,0.273,0.147,0.561,0.147,0.862c0,0.043-0.004,0.075-0.008,0.114h-0.876C25.418,52.25,25.38,51.921,25.318,51.6z
		 M25.229,51.221c-0.114-0.401-0.268-0.794-0.469-1.161c0.533,0.242,0.974,0.654,1.242,1.161H25.229z M27.383,37.674
		c0-0.813,0.663-1.469,1.469-1.469c0.812,0,1.472,0.656,1.472,1.469c0,0.813-0.66,1.469-1.472,1.469
		C28.043,39.136,27.383,38.482,27.383,37.674z M25.059,52.577h-1.234V51.6h1.107C25.007,51.921,25.044,52.25,25.059,52.577z
		 M20.008,44.636c0.862,0.584,2.182,0.953,3.671,0.953c1.491,0,2.806-0.369,3.67-0.953c-0.595,0.917-2.008,1.556-3.67,1.556
		C22.021,46.192,20.599,45.553,20.008,44.636z M17.035,37.674c0-0.813,0.651-1.469,1.464-1.469c0.811,0,1.469,0.656,1.469,1.469
		c0,0.813-0.658,1.469-1.469,1.469C17.687,39.136,17.035,38.482,17.035,37.674z M25.775,55.521c0.042,0.048,0.062,0.105,0.062,0.167
		c0,0.082-0.028,0.152-0.098,0.216c-0.062,0.058-0.145,0.092-0.246,0.092c-0.028,0-0.053-0.012-0.082-0.016
		c-0.031-0.01-0.067-0.014-0.105-0.034c-0.026-0.015-0.047-0.015-0.054-0.015c-0.019,0-0.031,0-0.042,0.015
		c-0.016,0.007-0.031,0.024-0.038,0.043h-0.025v-0.372h0.025c0.026,0.109,0.065,0.188,0.126,0.244
		c0.061,0.048,0.124,0.075,0.194,0.075c0.054,0,0.101-0.009,0.132-0.041c0.031-0.032,0.047-0.06,0.047-0.104
		c0-0.023-0.011-0.051-0.021-0.064c-0.011-0.022-0.035-0.045-0.051-0.062c-0.028-0.021-0.073-0.048-0.136-0.077
		c-0.089-0.044-0.159-0.075-0.191-0.109c-0.045-0.034-0.074-0.062-0.096-0.105c-0.021-0.038-0.029-0.077-0.029-0.13
		c0-0.077,0.029-0.144,0.085-0.2c0.062-0.053,0.131-0.083,0.215-0.083c0.034,0,0.067,0.005,0.101,0.015
		c0.021,0.006,0.047,0.016,0.084,0.033c0.027,0.017,0.051,0.025,0.065,0.025c0.011,0,0.021-0.004,0.025-0.009
		c0.013-0.012,0.015-0.034,0.02-0.06h0.023l0.009,0.333h-0.032c-0.007-0.082-0.047-0.15-0.103-0.2
		c-0.049-0.051-0.113-0.073-0.176-0.073c-0.047,0-0.089,0.014-0.121,0.041c-0.026,0.029-0.042,0.055-0.042,0.091
		c0,0.021,0.011,0.044,0.021,0.06c0.014,0.022,0.035,0.046,0.062,0.063c0.029,0.019,0.076,0.041,0.165,0.083
		C25.659,55.412,25.736,55.471,25.775,55.521z M22.242,54.988h0.319v0.027c-0.041,0.004-0.07,0.018-0.083,0.022
		c-0.017,0.014-0.024,0.022-0.033,0.043c-0.007,0.019-0.014,0.053-0.014,0.101V56h-0.024l-0.667-0.819v0.627
		c0,0.058,0.014,0.096,0.043,0.114c0.024,0.023,0.049,0.027,0.089,0.027h0.022v0.032H21.55V55.95c0.049,0,0.086-0.009,0.107-0.032
		c0.018-0.018,0.03-0.059,0.03-0.109v-0.695l-0.021-0.027c-0.021-0.025-0.038-0.048-0.051-0.048
		c-0.016-0.014-0.04-0.014-0.065-0.014v-0.03h0.344l0.486,0.607v-0.42c0-0.057-0.007-0.101-0.026-0.121
		c-0.021-0.027-0.063-0.045-0.112-0.045V54.988L22.242,54.988z M23.492,55.654h0.025l-0.042,0.316h-0.848v-0.034h0.03
		c0.026,0,0.051,0,0.068-0.009c0.007-0.01,0.021-0.023,0.03-0.037c0.006-0.014,0.006-0.05,0.006-0.096v-0.643
		c0-0.046,0-0.066-0.006-0.082c0-0.019-0.014-0.027-0.025-0.041c-0.012-0.014-0.042-0.019-0.073-0.019h-0.03v-0.027h0.818v0.282
		h-0.026c-0.011-0.063-0.031-0.118-0.058-0.141c-0.024-0.037-0.06-0.055-0.109-0.073c-0.024-0.005-0.078-0.009-0.147-0.009h-0.106
		v0.396h0.021c0.061,0,0.112-0.019,0.133-0.053c0.034-0.043,0.049-0.1,0.061-0.178h0.023v0.522h-0.023
		c-0.009-0.055-0.024-0.104-0.044-0.144c-0.016-0.034-0.033-0.058-0.061-0.066c-0.026-0.016-0.062-0.025-0.108-0.025v0.278
		c0,0.053,0.003,0.087,0.015,0.101c0.002,0.014,0.007,0.025,0.022,0.029c0.009,0.005,0.031,0.014,0.058,0.014h0.057
		c0.09,0,0.163-0.024,0.219-0.068C23.43,55.808,23.468,55.745,23.492,55.654z M24.801,54.988h0.257v0.027
		c-0.024,0-0.033,0.009-0.049,0.018c-0.015,0.005-0.026,0.027-0.031,0.044c-0.004,0.004-0.018,0.043-0.049,0.113L24.626,56h-0.033
		l-0.245-0.632L24.087,56h-0.028L23.731,55.2c-0.03-0.08-0.052-0.135-0.067-0.144c-0.012-0.019-0.038-0.032-0.061-0.032v-0.03h0.419
		v0.03c-0.032,0-0.051,0-0.058,0.014c-0.018,0.005-0.022,0.019-0.022,0.032c0,0.027,0.011,0.059,0.038,0.123l0.196,0.47l0.152-0.365
		l-0.04-0.104c-0.021-0.055-0.044-0.096-0.049-0.123c-0.016-0.014-0.028-0.027-0.044-0.032c-0.014-0.014-0.044-0.014-0.072-0.014
		v-0.03H24.6v0.03c-0.029,0-0.056,0-0.072,0.005c-0.009,0-0.014,0.009-0.026,0.014c0,0.014-0.005,0.022-0.005,0.027
		c0,0.018,0.012,0.05,0.031,0.109l0.183,0.465l0.156-0.42c0.021-0.05,0.032-0.077,0.032-0.091c0.006-0.021,0.01-0.034,0.01-0.048
		c0-0.025-0.01-0.034-0.021-0.048c-0.016-0.014-0.042-0.022-0.079-0.022v-0.027H24.801z M22.409,51.221
		c0.129-0.454,0.316-0.89,0.557-1.296c0.159-0.043,0.317-0.072,0.481-0.086v1.382H22.409z M22.324,51.6h1.124v0.977h-1.236
		C22.222,52.25,22.258,51.921,22.324,51.6z M22.021,51.221H21.35c0.246-0.449,0.614-0.828,1.066-1.072
		C22.253,50.494,22.12,50.854,22.021,51.221z M21.047,52.577c-0.002-0.039-0.007-0.071-0.007-0.114c0-0.302,0.056-0.589,0.145-0.862
		h0.753c-0.06,0.321-0.094,0.646-0.103,0.977H21.047z"/>
</g>
<g>
</g>
<g>
</g>
<g>
</g>
<g>
</g>
<g>
</g>
<g>
</g>
<g>
</g>
<g>
</g>
<g>
</g>
<g>
</g>
<g>
</g>
<g>
</g>
<g>
</g>
<g>
</g>
<g>
</g>
</svg>
